<mxfile host="app.diagrams.net" modified="2022-11-30T07:25:05.152Z" agent="5.0 (Windows NT 10.0; Win64; x64) AppleWebKit/537.36 (KHTML, like Gecko) Chrome/99.0.4844.74 Safari/537.36" version="20.6.0" etag="YaEbbDxLCCFDbGc2t-JB" type="github">
  <diagram id="xxaPNCAmJ1R4hiAv05Zu" name="第 1 页">
    <mxGraphModel dx="1000" dy="641" grid="1" gridSize="10" guides="1" tooltips="1" connect="1" arrows="1" fold="1" page="1" pageScale="1" pageWidth="827" pageHeight="1169" math="0" shadow="0">
      <root>
        <mxCell id="0" />
        <mxCell id="1" parent="0" />
        <mxCell id="ms7LFJtKdqE0an_dTheb-32" value="" style="rounded=0;whiteSpace=wrap;html=1;" vertex="1" parent="1">
          <mxGeometry x="287.5" y="470" width="140" height="70" as="geometry" />
        </mxCell>
        <mxCell id="ms7LFJtKdqE0an_dTheb-1" value="" style="rounded=0;whiteSpace=wrap;html=1;" vertex="1" parent="1">
          <mxGeometry x="165" y="160" width="265" height="120" as="geometry" />
        </mxCell>
        <mxCell id="ms7LFJtKdqE0an_dTheb-2" value="server (核心逻辑层）" style="rounded=0;whiteSpace=wrap;html=1;" vertex="1" parent="1">
          <mxGeometry x="162.5" y="350" width="270" height="30" as="geometry" />
        </mxCell>
        <mxCell id="ms7LFJtKdqE0an_dTheb-3" value="" style="endArrow=classic;html=1;rounded=0;" edge="1" parent="1" source="ms7LFJtKdqE0an_dTheb-1" target="ms7LFJtKdqE0an_dTheb-2">
          <mxGeometry width="50" height="50" relative="1" as="geometry">
            <mxPoint x="480" y="300" as="sourcePoint" />
            <mxPoint x="530" y="250" as="targetPoint" />
          </mxGeometry>
        </mxCell>
        <mxCell id="ms7LFJtKdqE0an_dTheb-4" value="GRPC" style="rounded=1;whiteSpace=wrap;html=1;" vertex="1" parent="1">
          <mxGeometry x="185" y="200" width="105" height="60" as="geometry" />
        </mxCell>
        <mxCell id="ms7LFJtKdqE0an_dTheb-5" value="HTTP" style="rounded=1;whiteSpace=wrap;html=1;" vertex="1" parent="1">
          <mxGeometry x="305" y="200" width="105" height="60" as="geometry" />
        </mxCell>
        <mxCell id="ms7LFJtKdqE0an_dTheb-7" value="api-server&lt;br&gt;（接入层，多协议支持）" style="text;strokeColor=none;fillColor=none;align=center;verticalAlign=middle;spacingLeft=4;spacingRight=4;overflow=hidden;points=[[0,0.5],[1,0.5]];portConstraint=eastwest;rotatable=0;whiteSpace=wrap;html=1;" vertex="1" parent="1">
          <mxGeometry x="210" y="160" width="175" height="30" as="geometry" />
        </mxCell>
        <mxCell id="ms7LFJtKdqE0an_dTheb-8" value="Plugin - PSA" style="rounded=0;whiteSpace=wrap;html=1;" vertex="1" parent="1">
          <mxGeometry x="510" y="300" width="120" height="30" as="geometry" />
        </mxCell>
        <mxCell id="ms7LFJtKdqE0an_dTheb-9" value="" style="endArrow=classic;html=1;rounded=0;exitX=0;exitY=0.5;exitDx=0;exitDy=0;" edge="1" parent="1" source="ms7LFJtKdqE0an_dTheb-8">
          <mxGeometry width="50" height="50" relative="1" as="geometry">
            <mxPoint x="440" y="330" as="sourcePoint" />
            <mxPoint x="300" y="315" as="targetPoint" />
          </mxGeometry>
        </mxCell>
        <mxCell id="ms7LFJtKdqE0an_dTheb-10" value="NameSpace， Service" style="text;html=1;strokeColor=none;fillColor=none;align=center;verticalAlign=middle;whiteSpace=wrap;rounded=0;" vertex="1" parent="1">
          <mxGeometry x="305" y="290" width="170" height="30" as="geometry" />
        </mxCell>
        <mxCell id="ms7LFJtKdqE0an_dTheb-11" value="查询Cache.Psa" style="rounded=0;whiteSpace=wrap;html=1;" vertex="1" parent="1">
          <mxGeometry x="510" y="410" width="120" height="30" as="geometry" />
        </mxCell>
        <mxCell id="ms7LFJtKdqE0an_dTheb-12" value="" style="endArrow=classic;html=1;rounded=0;" edge="1" parent="1" source="ms7LFJtKdqE0an_dTheb-8" target="ms7LFJtKdqE0an_dTheb-11">
          <mxGeometry width="50" height="50" relative="1" as="geometry">
            <mxPoint x="554" y="330" as="sourcePoint" />
            <mxPoint x="490" y="370" as="targetPoint" />
          </mxGeometry>
        </mxCell>
        <mxCell id="ms7LFJtKdqE0an_dTheb-13" value="如果NameSpace为纯数字，则认为是psaId，将会对NameSpace替换成P。" style="text;html=1;strokeColor=none;fillColor=none;align=center;verticalAlign=middle;whiteSpace=wrap;rounded=0;" vertex="1" parent="1">
          <mxGeometry x="560" y="350" width="240" height="30" as="geometry" />
        </mxCell>
        <mxCell id="ms7LFJtKdqE0an_dTheb-14" value="命中" style="rhombus;whiteSpace=wrap;html=1;" vertex="1" parent="1">
          <mxGeometry x="530" y="480" width="80" height="50" as="geometry" />
        </mxCell>
        <mxCell id="ms7LFJtKdqE0an_dTheb-15" value="" style="endArrow=classic;html=1;rounded=0;" edge="1" parent="1" source="ms7LFJtKdqE0an_dTheb-11" target="ms7LFJtKdqE0an_dTheb-14">
          <mxGeometry width="50" height="50" relative="1" as="geometry">
            <mxPoint x="540" y="500" as="sourcePoint" />
            <mxPoint x="590" y="470" as="targetPoint" />
          </mxGeometry>
        </mxCell>
        <mxCell id="ms7LFJtKdqE0an_dTheb-16" value="" style="endArrow=classic;html=1;rounded=0;" edge="1" parent="1" source="ms7LFJtKdqE0an_dTheb-14" target="ms7LFJtKdqE0an_dTheb-32">
          <mxGeometry width="50" height="50" relative="1" as="geometry">
            <mxPoint x="500" y="510" as="sourcePoint" />
            <mxPoint x="420" y="505" as="targetPoint" />
          </mxGeometry>
        </mxCell>
        <mxCell id="ms7LFJtKdqE0an_dTheb-17" value="" style="endArrow=classic;html=1;rounded=0;" edge="1" parent="1" source="ms7LFJtKdqE0an_dTheb-14">
          <mxGeometry width="50" height="50" relative="1" as="geometry">
            <mxPoint x="590" y="500" as="sourcePoint" />
            <mxPoint x="670" y="505" as="targetPoint" />
          </mxGeometry>
        </mxCell>
        <mxCell id="ms7LFJtKdqE0an_dTheb-18" value="判断上次更新时间" style="rounded=0;whiteSpace=wrap;html=1;" vertex="1" parent="1">
          <mxGeometry x="670" y="490" width="120" height="30" as="geometry" />
        </mxCell>
        <mxCell id="ms7LFJtKdqE0an_dTheb-19" value="" style="endArrow=classic;html=1;rounded=0;" edge="1" parent="1" source="ms7LFJtKdqE0an_dTheb-18" target="ms7LFJtKdqE0an_dTheb-11">
          <mxGeometry width="50" height="50" relative="1" as="geometry">
            <mxPoint x="750" y="440" as="sourcePoint" />
            <mxPoint x="680" y="515" as="targetPoint" />
            <Array as="points">
              <mxPoint x="730" y="425" />
            </Array>
          </mxGeometry>
        </mxCell>
        <mxCell id="ms7LFJtKdqE0an_dTheb-21" value="" style="endArrow=classic;html=1;rounded=0;" edge="1" parent="1" source="ms7LFJtKdqE0an_dTheb-18">
          <mxGeometry width="50" height="50" relative="1" as="geometry">
            <mxPoint x="740" y="500" as="sourcePoint" />
            <mxPoint x="640" y="590" as="targetPoint" />
            <Array as="points">
              <mxPoint x="730" y="590" />
            </Array>
          </mxGeometry>
        </mxCell>
        <mxCell id="ms7LFJtKdqE0an_dTheb-22" value="需要异步刷新" style="text;html=1;strokeColor=none;fillColor=none;align=center;verticalAlign=middle;whiteSpace=wrap;rounded=0;" vertex="1" parent="1">
          <mxGeometry x="640" y="555" width="110" height="30" as="geometry" />
        </mxCell>
        <mxCell id="ms7LFJtKdqE0an_dTheb-23" value="放入队列中异步消费" style="rounded=0;whiteSpace=wrap;html=1;" vertex="1" parent="1">
          <mxGeometry x="520" y="580" width="120" height="30" as="geometry" />
        </mxCell>
        <mxCell id="ms7LFJtKdqE0an_dTheb-24" value="sync.Map" style="rounded=0;whiteSpace=wrap;html=1;" vertex="1" parent="1">
          <mxGeometry x="55" y="410" width="390" height="30" as="geometry" />
        </mxCell>
        <mxCell id="ms7LFJtKdqE0an_dTheb-27" value="API.CMDB" style="rounded=0;whiteSpace=wrap;html=1;" vertex="1" parent="1">
          <mxGeometry x="295" y="505" width="120" height="30" as="geometry" />
        </mxCell>
        <mxCell id="ms7LFJtKdqE0an_dTheb-28" value="Store.PSA (实现为DB一张表）" style="rounded=0;whiteSpace=wrap;html=1;" vertex="1" parent="1">
          <mxGeometry x="70" y="600" width="360" height="30" as="geometry" />
        </mxCell>
        <mxCell id="ms7LFJtKdqE0an_dTheb-29" value="" style="endArrow=classic;html=1;rounded=0;entryX=0.367;entryY=1;entryDx=0;entryDy=0;entryPerimeter=0;" edge="1" parent="1" source="ms7LFJtKdqE0an_dTheb-23" target="ms7LFJtKdqE0an_dTheb-31">
          <mxGeometry width="50" height="50" relative="1" as="geometry">
            <mxPoint x="540" y="515" as="sourcePoint" />
            <mxPoint x="480" y="510" as="targetPoint" />
            <Array as="points">
              <mxPoint x="480" y="595" />
            </Array>
          </mxGeometry>
        </mxCell>
        <mxCell id="ms7LFJtKdqE0an_dTheb-30" value="命中" style="text;html=1;strokeColor=none;fillColor=none;align=center;verticalAlign=middle;whiteSpace=wrap;rounded=0;" vertex="1" parent="1">
          <mxGeometry x="610" y="480" width="60" height="30" as="geometry" />
        </mxCell>
        <mxCell id="ms7LFJtKdqE0an_dTheb-31" value="未命中" style="text;html=1;strokeColor=none;fillColor=none;align=center;verticalAlign=middle;whiteSpace=wrap;rounded=0;" vertex="1" parent="1">
          <mxGeometry x="460" y="480" width="60" height="30" as="geometry" />
        </mxCell>
        <mxCell id="ms7LFJtKdqE0an_dTheb-33" style="edgeStyle=orthogonalEdgeStyle;rounded=0;orthogonalLoop=1;jettySize=auto;html=1;exitX=0.5;exitY=1;exitDx=0;exitDy=0;" edge="1" parent="1" source="ms7LFJtKdqE0an_dTheb-27" target="ms7LFJtKdqE0an_dTheb-27">
          <mxGeometry relative="1" as="geometry" />
        </mxCell>
        <mxCell id="ms7LFJtKdqE0an_dTheb-34" value="psa级加锁防止缓存击穿" style="text;html=1;strokeColor=none;fillColor=none;align=center;verticalAlign=middle;whiteSpace=wrap;rounded=0;" vertex="1" parent="1">
          <mxGeometry x="282.5" y="475" width="150" height="30" as="geometry" />
        </mxCell>
        <mxCell id="ms7LFJtKdqE0an_dTheb-35" value="" style="endArrow=classic;html=1;rounded=0;entryX=0.897;entryY=-0.067;entryDx=0;entryDy=0;entryPerimeter=0;exitX=0.817;exitY=1.2;exitDx=0;exitDy=0;exitPerimeter=0;" edge="1" parent="1" source="ms7LFJtKdqE0an_dTheb-27" target="ms7LFJtKdqE0an_dTheb-28">
          <mxGeometry width="50" height="50" relative="1" as="geometry">
            <mxPoint x="400" y="490" as="sourcePoint" />
            <mxPoint x="450" y="440" as="targetPoint" />
          </mxGeometry>
        </mxCell>
        <mxCell id="ms7LFJtKdqE0an_dTheb-36" value="更新或者插入" style="text;html=1;strokeColor=none;fillColor=none;align=center;verticalAlign=middle;whiteSpace=wrap;rounded=0;" vertex="1" parent="1">
          <mxGeometry x="300" y="554.5" width="87.5" height="30" as="geometry" />
        </mxCell>
        <mxCell id="ms7LFJtKdqE0an_dTheb-37" value="" style="endArrow=classic;html=1;rounded=0;exitX=0.075;exitY=0.033;exitDx=0;exitDy=0;exitPerimeter=0;entryX=0.11;entryY=0.9;entryDx=0;entryDy=0;entryPerimeter=0;" edge="1" parent="1" source="ms7LFJtKdqE0an_dTheb-28" target="ms7LFJtKdqE0an_dTheb-24">
          <mxGeometry width="50" height="50" relative="1" as="geometry">
            <mxPoint x="300" y="480" as="sourcePoint" />
            <mxPoint x="120" y="440" as="targetPoint" />
          </mxGeometry>
        </mxCell>
        <mxCell id="ms7LFJtKdqE0an_dTheb-38" value="第一次启动时全量拉取" style="text;html=1;strokeColor=none;fillColor=none;align=center;verticalAlign=middle;whiteSpace=wrap;rounded=0;" vertex="1" parent="1">
          <mxGeometry x="10" y="510" width="70" height="30" as="geometry" />
        </mxCell>
        <mxCell id="ms7LFJtKdqE0an_dTheb-39" value="" style="endArrow=classic;html=1;rounded=0;" edge="1" parent="1" source="ms7LFJtKdqE0an_dTheb-11" target="ms7LFJtKdqE0an_dTheb-24">
          <mxGeometry width="50" height="50" relative="1" as="geometry">
            <mxPoint x="580" y="340" as="sourcePoint" />
            <mxPoint x="580" y="420" as="targetPoint" />
          </mxGeometry>
        </mxCell>
        <mxCell id="ms7LFJtKdqE0an_dTheb-40" value="" style="endArrow=classic;html=1;rounded=0;exitX=0.333;exitY=0;exitDx=0;exitDy=0;exitPerimeter=0;entryX=0.349;entryY=0.967;entryDx=0;entryDy=0;entryPerimeter=0;" edge="1" parent="1" source="ms7LFJtKdqE0an_dTheb-28" target="ms7LFJtKdqE0an_dTheb-24">
          <mxGeometry width="50" height="50" relative="1" as="geometry">
            <mxPoint x="300" y="470" as="sourcePoint" />
            <mxPoint x="350" y="420" as="targetPoint" />
          </mxGeometry>
        </mxCell>
        <mxCell id="ms7LFJtKdqE0an_dTheb-41" value="后续按照最后更新时间，定时拉取" style="text;html=1;strokeColor=none;fillColor=none;align=center;verticalAlign=middle;whiteSpace=wrap;rounded=0;" vertex="1" parent="1">
          <mxGeometry x="115" y="520" width="70" height="30" as="geometry" />
        </mxCell>
      </root>
    </mxGraphModel>
  </diagram>
</mxfile>
